<svg width="459" height="158" viewBox="0 0 459 158" fill="none" xmlns="http://www.w3.org/2000/svg">
<path d="M55.6239 17.7556C55.6239 16.4481 54.5643 15.3882 53.257 15.3882C51.9498 15.3882 50.89 16.4481 50.89 17.7556C50.89 19.0631 51.9498 20.123 53.257 20.123C54.5643 20.123 55.6239 19.0631 55.6239 17.7556Z" fill="#141414"/>
<path d="M74.5598 17.7556C74.5598 16.4481 73.4997 15.3882 72.193 15.3882C70.8852 15.3882 69.8257 16.4481 69.8257 17.7556C69.8257 19.0631 70.8852 20.123 72.193 20.123C73.4997 20.123 74.5598 19.0631 74.5598 17.7556Z" fill="#141414"/>
<path d="M89.9451 24.8579C89.9451 23.5504 88.8855 22.4905 87.5777 22.4905C86.271 22.4905 85.2109 23.5504 85.2109 24.8579C85.2109 26.1654 86.271 27.2253 87.5777 27.2253C88.8855 27.2253 89.9451 26.1654 89.9451 24.8579Z" fill="#141414"/>
<path d="M102.964 36.6949C102.964 35.3875 101.904 34.3275 100.596 34.3275C99.2896 34.3275 98.2295 35.3875 98.2295 36.6949C98.2295 38.0024 99.2896 39.0623 100.596 39.0623C101.904 39.0623 102.964 38.0024 102.964 36.6949Z" fill="#141414"/>
<path d="M110.064 53.2669C110.064 51.9594 109.004 50.8995 107.697 50.8995C106.39 50.8995 105.33 51.9594 105.33 53.2669C105.33 54.5744 106.39 55.6345 107.697 55.6345C109.004 55.6345 110.064 54.5744 110.064 53.2669Z" fill="#141414"/>
<path d="M110.064 72.2059C110.064 70.8987 109.004 69.8386 107.697 69.8386C106.39 69.8386 105.33 70.8987 105.33 72.2059C105.33 73.5138 106.39 74.5738 107.697 74.5738C109.004 74.5738 110.064 73.5138 110.064 72.2059Z" fill="#141414"/>
<path d="M104.146 87.5946C104.146 86.2868 103.087 85.2272 101.78 85.2272C100.472 85.2272 99.4128 86.2868 99.4128 87.5946C99.4128 88.9018 100.472 89.9619 101.78 89.9619C103.087 89.9619 104.146 88.9018 104.146 87.5946Z" fill="#141414"/>
<path d="M91.1285 101.799C91.1285 100.491 90.0684 99.4313 88.7617 99.4313C87.4539 99.4313 86.3943 100.491 86.3943 101.799C86.3943 103.107 87.4539 104.167 88.7617 104.167C90.0684 104.167 91.1285 103.107 91.1285 101.799Z" fill="#141414"/>
<path d="M74.5598 106.534C74.5598 105.226 73.4997 104.167 72.193 104.167C70.8852 104.167 69.8257 105.226 69.8257 106.534C69.8257 107.841 70.8852 108.901 72.193 108.901C73.4997 108.901 74.5598 107.841 74.5598 106.534Z" fill="#141414"/>
<path d="M56.8072 107.717C56.8072 106.41 55.7477 105.35 54.4404 105.35C53.1332 105.35 52.0735 106.41 52.0735 107.717C52.0735 109.025 53.1332 110.085 54.4404 110.085C55.7477 110.085 56.8072 109.025 56.8072 107.717Z" fill="#141414"/>
<path d="M40.2386 101.799C40.2386 100.491 39.1788 99.4313 37.8716 99.4313C36.5644 99.4313 35.5046 100.491 35.5046 101.799C35.5046 103.107 36.5644 104.167 37.8716 104.167C39.1788 104.167 40.2386 103.107 40.2386 101.799Z" fill="#141414"/>
<path d="M27.2202 88.778C27.2202 87.4707 26.1605 86.4106 24.8533 86.4106C23.5461 86.4106 22.4863 87.4707 22.4863 88.778C22.4863 90.0858 23.5461 91.1459 24.8533 91.1459C26.1605 91.1459 27.2202 90.0858 27.2202 88.778Z" fill="#141414"/>
<path d="M20.1193 72.2059C20.1193 70.8987 19.0595 69.8386 17.7523 69.8386C16.445 69.8386 15.3852 70.8987 15.3852 72.2059C15.3852 73.5138 16.445 74.5738 17.7523 74.5738C19.0595 74.5738 20.1193 73.5138 20.1193 72.2059Z" fill="#141414"/>
<path d="M20.1193 54.4506C20.1193 53.1431 19.0595 52.0832 17.7523 52.0832C16.445 52.0832 15.3852 53.1431 15.3852 54.4506C15.3852 55.7584 16.445 56.8185 17.7523 56.8185C19.0595 56.8185 20.1193 55.7584 20.1193 54.4506Z" fill="#141414"/>
<path d="M27.2202 37.8786C27.2202 36.5711 26.1605 35.5112 24.8533 35.5112C23.5461 35.5112 22.4863 36.5711 22.4863 37.8786C22.4863 39.1861 23.5461 40.2461 24.8533 40.2461C26.1605 40.2461 27.2202 39.1861 27.2202 37.8786Z" fill="#141414"/>
<path d="M39.055 24.8579C39.055 23.5504 37.9953 22.4905 36.6881 22.4905C35.3808 22.4905 34.3211 23.5504 34.3211 24.8579C34.3211 26.1654 35.3808 27.2253 36.6881 27.2253C37.9953 27.2253 39.055 26.1654 39.055 24.8579Z" fill="#141414"/>
<path d="M55.6239 17.7556C55.6239 16.4481 54.5643 15.3882 53.257 15.3882C51.9498 15.3882 50.89 16.4481 50.89 17.7556C50.89 19.0631 51.9498 20.123 53.257 20.123C54.5643 20.123 55.6239 19.0631 55.6239 17.7556Z" fill="#141414"/>
<path d="M85.211 13.0208C85.211 11.7133 84.1515 10.6534 82.8442 10.6534C81.5369 10.6534 80.4774 11.7133 80.4774 13.0208C80.4774 14.3283 81.5369 15.3882 82.8442 15.3882C84.1515 15.3882 85.211 14.3283 85.211 13.0208Z" fill="#141414"/>
<path d="M102.964 24.8579C102.964 23.5504 101.904 22.4905 100.596 22.4905C99.2896 22.4905 98.2295 23.5504 98.2295 24.8579C98.2295 26.1654 99.2896 27.2253 100.596 27.2253C101.904 27.2253 102.964 26.1654 102.964 24.8579Z" fill="#141414"/>
<path d="M63.908 8.28598C63.908 6.97844 62.8485 5.91852 61.5412 5.91852C60.2334 5.91852 59.1744 6.97844 59.1744 8.28598C59.1744 9.59342 60.2334 10.6533 61.5412 10.6533C62.8485 10.6533 63.908 9.59342 63.908 8.28598Z" fill="#141414"/>
<path d="M42.6055 13.0208C42.6055 11.7133 41.5458 10.6534 40.2385 10.6534C38.9313 10.6534 37.8715 11.7133 37.8715 13.0208C37.8715 14.3283 38.9313 15.3882 40.2385 15.3882C41.5458 15.3882 42.6055 14.3283 42.6055 13.0208Z" fill="#141414"/>
<path d="M24.8532 27.2253C24.8532 25.9178 23.7934 24.8579 22.4862 24.8579C21.179 24.8579 20.1192 25.9178 20.1192 27.2253C20.1192 28.5328 21.179 29.5928 22.4862 29.5928C23.7934 29.5928 24.8532 28.5328 24.8532 27.2253Z" fill="#141414"/>
<path d="M13.0183 44.9809C13.0183 43.6734 11.9586 42.6135 10.6513 42.6135C9.34409 42.6135 8.28439 43.6734 8.28439 44.9809C8.28439 46.2884 9.34409 47.3484 10.6513 47.3484C11.9586 47.3484 13.0183 46.2884 13.0183 44.9809Z" fill="#141414"/>
<path d="M9.46786 66.2878C9.46786 64.98 8.40811 63.9205 7.10085 63.9205C5.79363 63.9205 4.7339 64.98 4.7339 66.2878C4.7339 67.5951 5.79363 68.6552 7.10085 68.6552C8.40811 68.6552 9.46786 67.5951 9.46786 66.2878Z" fill="#141414"/>
<path d="M15.3853 87.5946C15.3853 86.2868 14.3256 85.2272 13.0184 85.2272C11.7111 85.2272 10.6513 86.2868 10.6513 87.5946C10.6513 88.9018 11.7111 89.9619 13.0184 89.9619C14.3256 89.9619 15.3853 88.9018 15.3853 87.5946Z" fill="#141414"/>
<path d="M27.2202 104.167C27.2202 102.859 26.1605 101.799 24.8533 101.799C23.5461 101.799 22.4863 102.859 22.4863 104.167C22.4863 105.474 23.5461 106.534 24.8533 106.534C26.1605 106.534 27.2202 105.474 27.2202 104.167Z" fill="#141414"/>
<path d="M44.9724 116.003C44.9724 114.696 43.9127 113.636 42.6055 113.636C41.2982 113.636 40.2385 114.696 40.2385 116.003C40.2385 117.311 41.2982 118.371 42.6055 118.371C43.9127 118.371 44.9724 117.311 44.9724 116.003Z" fill="#141414"/>
<path d="M68.6423 119.555C68.6423 118.247 67.5822 117.187 66.2755 117.187C64.9677 117.187 63.9081 118.247 63.9081 119.555C63.9081 120.862 64.9677 121.922 66.2755 121.922C67.5822 121.922 68.6423 120.862 68.6423 119.555Z" fill="#141414"/>
<path d="M88.7617 113.636C88.7617 112.329 87.7016 111.269 86.3944 111.269C85.0871 111.269 84.0276 112.329 84.0276 113.636C84.0276 114.944 85.0871 116.003 86.3944 116.003C87.7016 116.003 88.7617 114.944 88.7617 113.636Z" fill="#141414"/>
<path d="M106.514 101.799C106.514 100.491 105.454 99.4313 104.146 99.4313C102.84 99.4313 101.78 100.491 101.78 101.799C101.78 103.107 102.84 104.167 104.146 104.167C105.454 104.167 106.514 103.107 106.514 101.799Z" fill="#141414"/>
<path d="M118.348 84.0432C118.348 82.736 117.289 81.6764 115.982 81.6764C114.674 81.6764 113.615 82.736 113.615 84.0432C113.615 85.3511 114.674 86.4106 115.982 86.4106C117.289 86.4106 118.348 85.3511 118.348 84.0432Z" fill="#141414"/>
<path d="M129 74.5738C129 73.9196 128.47 73.3904 127.817 73.3904C127.163 73.3904 126.633 73.9196 126.633 74.5738C126.633 75.2274 127.163 75.7572 127.817 75.7572C128.47 75.7572 129 75.2274 129 74.5738Z" fill="#141414"/>
<path d="M118.348 98.2479C118.348 97.5943 117.819 97.0639 117.165 97.0639C116.511 97.0639 115.982 97.5943 115.982 98.2479C115.982 98.9015 116.511 99.4313 117.165 99.4313C117.819 99.4313 118.348 98.9015 118.348 98.2479Z" fill="#141414"/>
<path d="M100.596 114.819C100.596 114.166 100.067 113.636 99.4129 113.636C98.7593 113.636 98.2295 114.166 98.2295 114.819C98.2295 115.474 98.7593 116.003 99.4129 116.003C100.067 116.003 100.596 115.474 100.596 114.819Z" fill="#141414"/>
<path d="M79.2934 125.473C79.2934 124.82 78.7636 124.289 78.1099 124.289C77.4563 124.289 76.9271 124.82 76.9271 125.473C76.9271 126.127 77.4563 126.657 78.1099 126.657C78.7636 126.657 79.2934 126.127 79.2934 125.473Z" fill="#141414"/>
<path d="M53.257 126.657C53.257 126.003 52.7271 125.473 52.0736 125.473C51.4199 125.473 50.89 126.003 50.89 126.657C50.89 127.311 51.4199 127.841 52.0736 127.841C52.7271 127.841 53.257 127.311 53.257 126.657Z" fill="#141414"/>
<path d="M29.5871 118.371C29.5871 117.717 29.0573 117.187 28.4037 117.187C27.75 117.187 27.2201 117.717 27.2201 118.371C27.2201 119.025 27.75 119.555 28.4037 119.555C29.0573 119.555 29.5871 119.025 29.5871 118.371Z" fill="#141414"/>
<path d="M11.8348 99.4313C11.8348 98.7777 11.3049 98.2479 10.6513 98.2479C9.99768 98.2479 9.46781 98.7777 9.46781 99.4313C9.46781 100.086 9.99768 100.615 10.6513 100.615C11.3049 100.615 11.8348 100.086 11.8348 99.4313Z" fill="#141414"/>
<path d="M2.36697 76.9412C2.36697 76.2875 1.83711 75.7572 1.18348 75.7572C0.529866 75.7572 0 76.2875 0 76.9412C0 77.5948 0.529866 78.1246 1.18348 78.1246C1.83711 78.1246 2.36697 77.5948 2.36697 76.9412Z" fill="#141414"/>
<path d="M2.36697 52.0832C2.36697 51.4295 1.83711 50.8995 1.18348 50.8995C0.529866 50.8995 0 51.4295 0 52.0832C0 52.7369 0.529866 53.2669 1.18348 53.2669C1.83711 53.2669 2.36697 52.7369 2.36697 52.0832Z" fill="#141414"/>
<path d="M10.6513 28.409C10.6513 27.7553 10.1215 27.2253 9.46784 27.2253C8.81427 27.2253 8.28439 27.7553 8.28439 28.409C8.28439 29.0628 8.81427 29.5928 9.46784 29.5928C10.1215 29.5928 10.6513 29.0628 10.6513 28.409Z" fill="#141414"/>
<path d="M27.2202 10.6533C27.2202 9.99964 26.6904 9.46966 26.0367 9.46966C25.3831 9.46966 24.8533 9.99964 24.8533 10.6533C24.8533 11.3071 25.3831 11.8371 26.0367 11.8371C26.6904 11.8371 27.2202 11.3071 27.2202 10.6533Z" fill="#141414"/>
<path d="M50.8899 1.1837C50.8899 0.529957 50.3601 0 49.7065 0C49.0529 0 48.523 0.529957 48.523 1.1837C48.523 1.83745 49.0529 2.36742 49.7065 2.36742C50.3601 2.36742 50.8899 1.83745 50.8899 1.1837Z" fill="#141414"/>
<path d="M75.7432 1.1837C75.7432 0.529957 75.2129 0 74.5598 0C73.9062 0 73.3758 0.529957 73.3758 1.1837C73.3758 1.83745 73.9062 2.36742 74.5598 2.36742C75.2129 2.36742 75.7432 1.83745 75.7432 1.1837Z" fill="#141414"/>
<path d="M99.4129 9.46969C99.4129 8.81595 98.8831 8.28602 98.2295 8.28602C97.5758 8.28602 97.0461 8.81595 97.0461 9.46969C97.0461 10.1234 97.5758 10.6534 98.2295 10.6534C98.8831 10.6534 99.4129 10.1234 99.4129 9.46969Z" fill="#141414"/>
<path d="M117.165 27.2253C117.165 26.5715 116.635 26.0416 115.982 26.0416C115.328 26.0416 114.798 26.5715 114.798 27.2253C114.798 27.879 115.328 28.4089 115.982 28.4089C116.635 28.4089 117.165 27.879 117.165 27.2253Z" fill="#141414"/>
<path d="M126.633 50.8995C126.633 50.2458 126.104 49.7157 125.449 49.7157C124.796 49.7157 124.266 50.2458 124.266 50.8995C124.266 51.5532 124.796 52.0832 125.449 52.0832C126.104 52.0832 126.633 51.5532 126.633 50.8995Z" fill="#141414"/>
<path d="M115.982 40.2461C115.982 38.9387 114.922 37.8787 113.615 37.8787C112.307 37.8787 111.248 38.9387 111.248 40.2461C111.248 41.5536 112.307 42.6135 113.615 42.6135C114.922 42.6135 115.982 41.5536 115.982 40.2461Z" fill="#141414"/>
<path d="M120.715 61.5526C120.715 60.2453 119.656 59.1852 118.348 59.1852C117.042 59.1852 115.982 60.2453 115.982 61.5526C115.982 62.8604 117.042 63.9205 118.348 63.9205C119.656 63.9205 120.715 62.8604 120.715 61.5526Z" fill="#141414"/>
<path d="M65.0915 98.2479C65.0915 96.2865 63.5022 94.6966 61.5413 94.6966C59.5804 94.6966 57.9911 96.2865 57.9911 98.2479C57.9911 100.209 59.5804 101.799 61.5413 101.799C63.5022 101.799 65.0915 100.209 65.0915 98.2479Z" fill="#141414"/>
<path d="M52.0735 95.8806C52.0735 93.9191 50.4839 92.3293 48.523 92.3293C46.5622 92.3293 44.9726 93.9191 44.9726 95.8806C44.9726 97.842 46.5622 99.4313 48.523 99.4313C50.4839 99.4313 52.0735 97.842 52.0735 95.8806Z" fill="#141414"/>
<path d="M40.2385 87.5946C40.2385 85.6331 38.6489 84.0433 36.6881 84.0433C34.7272 84.0433 33.1376 85.6331 33.1376 87.5946C33.1376 89.556 34.7272 91.1459 36.6881 91.1459C38.6489 91.1459 40.2385 89.556 40.2385 87.5946Z" fill="#141414"/>
<path d="M31.9542 75.7573C31.9542 73.7958 30.3645 72.206 28.4037 72.206C26.4428 72.206 24.8533 73.7958 24.8533 75.7573C24.8533 77.7187 26.4428 79.3086 28.4037 79.3086C30.3645 79.3086 31.9542 77.7187 31.9542 75.7573Z" fill="#141414"/>
<path d="M29.5873 61.5526C29.5873 59.5917 27.9977 58.0018 26.0368 58.0018C24.0759 58.0018 22.4863 59.5917 22.4863 61.5526C22.4863 63.514 24.0759 65.1044 26.0368 65.1044C27.9977 65.1044 29.5873 63.514 29.5873 61.5526Z" fill="#141414"/>
<path d="M31.9542 48.5321C31.9542 46.5709 30.3645 44.9809 28.4037 44.9809C26.4428 44.9809 24.8533 46.5709 24.8533 48.5321C24.8533 50.4933 26.4428 52.0832 28.4037 52.0832C30.3645 52.0832 31.9542 50.4933 31.9542 48.5321Z" fill="#141414"/>
<path d="M40.2385 36.695C40.2385 34.7337 38.6489 33.1439 36.6881 33.1439C34.7272 33.1439 33.1376 34.7337 33.1376 36.695C33.1376 38.6562 34.7272 40.2461 36.6881 40.2461C38.6489 40.2461 40.2385 38.6562 40.2385 36.695Z" fill="#141414"/>
<path d="M52.0735 29.5927C52.0735 27.6314 50.4839 26.0416 48.523 26.0416C46.5622 26.0416 44.9726 27.6314 44.9726 29.5927C44.9726 31.5539 46.5622 33.1439 48.523 33.1439C50.4839 33.1439 52.0735 31.5539 52.0735 29.5927Z" fill="#141414"/>
<path d="M65.0915 26.0416C65.0915 24.0803 63.5022 22.4905 61.5413 22.4905C59.5804 22.4905 57.9911 24.0803 57.9911 26.0416C57.9911 28.0028 59.5804 29.5928 61.5413 29.5928C63.5022 29.5928 65.0915 28.0028 65.0915 26.0416Z" fill="#141414"/>
<path d="M79.2935 29.5927C79.2935 27.6314 77.7042 26.0416 75.7433 26.0416C73.7824 26.0416 72.1931 27.6314 72.1931 29.5927C72.1931 31.5539 73.7824 33.1439 75.7433 33.1439C77.7042 33.1439 79.2935 31.5539 79.2935 29.5927Z" fill="#141414"/>
<path d="M91.1285 36.695C91.1285 34.7337 89.5392 33.1439 87.5778 33.1439C85.6169 33.1439 84.0276 34.7337 84.0276 36.695C84.0276 38.6562 85.6169 40.2461 87.5778 40.2461C89.5392 40.2461 91.1285 38.6562 91.1285 36.695Z" fill="#141414"/>
<path d="M98.2294 48.5321C98.2294 46.5709 96.6395 44.9809 94.6786 44.9809C92.7183 44.9809 91.1284 46.5709 91.1284 48.5321C91.1284 50.4933 92.7183 52.0832 94.6786 52.0832C96.6395 52.0832 98.2294 50.4933 98.2294 48.5321Z" fill="#141414"/>
<path d="M101.78 62.7365C101.78 60.7756 100.19 59.1852 98.2296 59.1852C96.2687 59.1852 94.6788 60.7756 94.6788 62.7365C94.6788 64.698 96.2687 66.2878 98.2296 66.2878C100.19 66.2878 101.78 64.698 101.78 62.7365Z" fill="#141414"/>
<path d="M98.2294 75.7573C98.2294 73.7958 96.6395 72.206 94.6786 72.206C92.7183 72.206 91.1284 73.7958 91.1284 75.7573C91.1284 77.7187 92.7183 79.3086 94.6786 79.3086C96.6395 79.3086 98.2294 77.7187 98.2294 75.7573Z" fill="#141414"/>
<path d="M91.1285 87.5946C91.1285 85.6331 89.5392 84.0433 87.5778 84.0433C85.6169 84.0433 84.0276 85.6331 84.0276 87.5946C84.0276 89.556 85.6169 91.1459 87.5778 91.1459C89.5392 91.1459 91.1285 89.556 91.1285 87.5946Z" fill="#141414"/>
<path d="M79.2935 94.6966C79.2935 92.7357 77.7042 91.1458 75.7433 91.1458C73.7824 91.1458 72.1931 92.7357 72.1931 94.6966C72.1931 96.6575 73.7824 98.2479 75.7433 98.2479C77.7042 98.2479 79.2935 96.6575 79.2935 94.6966Z" fill="#141414"/>
<path d="M29.9195 151.879V153.841H20.4695V141.241H29.6675V143.203H22.8095V146.479H28.8935V148.405H22.8095V151.879H29.9195ZM35.9841 154.021C35.0121 154.021 34.0701 153.883 33.1581 153.607C32.2581 153.331 31.5441 152.965 31.0161 152.509L31.8261 150.691C32.3421 151.099 32.9721 151.435 33.7161 151.699C34.4721 151.951 35.2281 152.077 35.9841 152.077C36.9201 152.077 37.6161 151.927 38.0721 151.627C38.5401 151.327 38.7741 150.931 38.7741 150.439C38.7741 150.079 38.6421 149.785 38.3781 149.557C38.1261 149.317 37.8021 149.131 37.4061 148.999C37.0101 148.867 36.4701 148.717 35.7861 148.549C34.8261 148.321 34.0461 148.093 33.4461 147.865C32.8581 147.637 32.3481 147.283 31.9161 146.803C31.4961 146.311 31.2861 145.651 31.2861 144.823C31.2861 144.127 31.4721 143.497 31.8441 142.933C32.2281 142.357 32.7981 141.901 33.5541 141.565C34.3221 141.229 35.2581 141.061 36.3621 141.061C37.1301 141.061 37.8861 141.157 38.6301 141.349C39.3741 141.541 40.0161 141.817 40.5561 142.177L39.8181 143.995C39.2661 143.671 38.6901 143.425 38.0901 143.257C37.4901 143.089 36.9081 143.005 36.3441 143.005C35.4201 143.005 34.7301 143.161 34.2741 143.473C33.8301 143.785 33.6081 144.199 33.6081 144.715C33.6081 145.075 33.7341 145.369 33.9861 145.597C34.2501 145.825 34.5801 146.005 34.9761 146.137C35.3721 146.269 35.9121 146.419 36.5961 146.587C37.5321 146.803 38.3001 147.031 38.9001 147.271C39.5001 147.499 40.0101 147.853 40.4301 148.333C40.8621 148.813 41.0781 149.461 41.0781 150.277C41.0781 150.973 40.8861 151.603 40.5021 152.167C40.1301 152.731 39.5601 153.181 38.7921 153.517C38.0241 153.853 37.0881 154.021 35.9841 154.021ZM45.3287 143.221H41.1527V141.241H51.8447V143.221H47.6687V153.841H45.3287V143.221ZM53.1508 141.241H58.6588C60.0028 141.241 61.1968 141.505 62.2408 142.033C63.2848 142.549 64.0948 143.287 64.6708 144.247C65.2468 145.195 65.5348 146.293 65.5348 147.541C65.5348 148.789 65.2468 149.893 64.6708 150.853C64.0948 151.801 63.2848 152.539 62.2408 153.067C61.1968 153.583 60.0028 153.841 58.6588 153.841H53.1508V141.241ZM58.5508 151.861C59.4748 151.861 60.2848 151.687 60.9808 151.339C61.6888 150.979 62.2288 150.475 62.6008 149.827C62.9848 149.167 63.1768 148.405 63.1768 147.541C63.1768 146.677 62.9848 145.921 62.6008 145.273C62.2288 144.613 61.6888 144.109 60.9808 143.761C60.2848 143.401 59.4748 143.221 58.5508 143.221H55.4908V151.861H58.5508ZM75.5525 141.241V153.841H73.2125V143.203H70.5485V141.241H75.5525ZM81.85 141.061C83.578 141.061 84.916 141.601 85.864 142.681C86.824 143.761 87.304 145.309 87.304 147.325C87.304 148.741 87.046 149.953 86.53 150.961C86.014 151.957 85.288 152.719 84.352 153.247C83.428 153.763 82.354 154.021 81.13 154.021C80.482 154.021 79.87 153.955 79.294 153.823C78.73 153.679 78.238 153.475 77.818 153.211L78.682 151.447C79.306 151.855 80.104 152.059 81.076 152.059C82.288 152.059 83.236 151.687 83.92 150.943C84.604 150.199 84.946 149.125 84.946 147.721V147.703C84.574 148.135 84.1 148.465 83.524 148.693C82.948 148.909 82.3 149.017 81.58 149.017C80.752 149.017 80.008 148.861 79.348 148.549C78.688 148.225 78.172 147.769 77.8 147.181C77.428 146.593 77.242 145.915 77.242 145.147C77.242 144.331 77.446 143.617 77.854 143.005C78.262 142.381 78.814 141.901 79.51 141.565C80.206 141.229 80.986 141.061 81.85 141.061ZM82.03 147.181C82.786 147.181 83.398 146.977 83.866 146.569C84.346 146.161 84.586 145.645 84.586 145.021C84.586 144.409 84.352 143.905 83.884 143.509C83.428 143.101 82.792 142.897 81.976 142.897C81.244 142.897 80.65 143.095 80.194 143.491C79.738 143.875 79.51 144.391 79.51 145.039C79.51 145.699 79.738 146.221 80.194 146.605C80.65 146.989 81.262 147.181 82.03 147.181ZM96.6091 147.217C97.2691 147.517 97.7731 147.925 98.1211 148.441C98.4811 148.945 98.6611 149.539 98.6611 150.223C98.6611 150.991 98.4451 151.663 98.0131 152.239C97.5931 152.815 96.9931 153.259 96.2131 153.571C95.4331 153.871 94.5271 154.021 93.4951 154.021C92.4631 154.021 91.5571 153.871 90.7771 153.571C90.0091 153.259 89.4151 152.815 88.9951 152.239C88.5751 151.663 88.3651 150.991 88.3651 150.223C88.3651 149.539 88.5391 148.945 88.8871 148.441C89.2351 147.925 89.7331 147.517 90.3811 147.217C89.8771 146.941 89.4871 146.581 89.2111 146.137C88.9471 145.681 88.8151 145.159 88.8151 144.571C88.8151 143.863 89.0071 143.245 89.3911 142.717C89.7871 142.189 90.3391 141.781 91.0471 141.493C91.7551 141.205 92.5711 141.061 93.4951 141.061C94.4311 141.061 95.2531 141.205 95.9611 141.493C96.6691 141.781 97.2211 142.189 97.6171 142.717C98.0131 143.245 98.2111 143.863 98.2111 144.571C98.2111 145.159 98.0731 145.675 97.7971 146.119C97.5211 146.563 97.1251 146.929 96.6091 147.217ZM93.4951 142.897C92.7631 142.897 92.1811 143.053 91.7491 143.365C91.3291 143.677 91.1191 144.115 91.1191 144.679C91.1191 145.219 91.3291 145.651 91.7491 145.975C92.1811 146.287 92.7631 146.443 93.4951 146.443C94.2391 146.443 94.8271 146.287 95.2591 145.975C95.6911 145.651 95.9071 145.219 95.9071 144.679C95.9071 144.115 95.6851 143.677 95.2411 143.365C94.8091 143.053 94.2271 142.897 93.4951 142.897ZM93.4951 152.185C94.3591 152.185 95.0431 152.005 95.5471 151.645C96.0511 151.285 96.3031 150.787 96.3031 150.151C96.3031 149.527 96.0511 149.035 95.5471 148.675C95.0431 148.315 94.3591 148.135 93.4951 148.135C92.6311 148.135 91.9531 148.315 91.4611 148.675C90.9691 149.035 90.7231 149.527 90.7231 150.151C90.7231 150.787 90.9691 151.285 91.4611 151.645C91.9531 152.005 92.6311 152.185 93.4951 152.185ZM105.453 146.065C106.281 146.065 107.025 146.227 107.685 146.551C108.345 146.863 108.861 147.313 109.233 147.901C109.605 148.489 109.791 149.167 109.791 149.935C109.791 150.751 109.587 151.471 109.179 152.095C108.771 152.707 108.219 153.181 107.523 153.517C106.827 153.853 106.047 154.021 105.183 154.021C103.455 154.021 102.111 153.481 101.151 152.401C100.203 151.321 99.7293 149.773 99.7293 147.757C99.7293 146.341 99.9873 145.135 100.503 144.139C101.019 143.131 101.739 142.369 102.663 141.853C103.599 141.325 104.679 141.061 105.903 141.061C106.551 141.061 107.157 141.133 107.721 141.277C108.297 141.409 108.795 141.607 109.215 141.871L108.351 143.635C107.727 143.227 106.929 143.023 105.957 143.023C104.745 143.023 103.797 143.395 103.113 144.139C102.429 144.883 102.087 145.957 102.087 147.361V147.379C102.459 146.947 102.933 146.623 103.509 146.407C104.085 146.179 104.733 146.065 105.453 146.065ZM105.057 152.185C105.789 152.185 106.383 151.993 106.839 151.609C107.295 151.213 107.523 150.691 107.523 150.043C107.523 149.383 107.295 148.861 106.839 148.477C106.383 148.093 105.771 147.901 105.003 147.901C104.247 147.901 103.629 148.105 103.149 148.513C102.681 148.921 102.447 149.437 102.447 150.061C102.447 150.673 102.675 151.183 103.131 151.591C103.599 151.987 104.241 152.185 105.057 152.185Z" fill="#141414"/>
<path d="M159 34.6704V123.17" stroke="#141414" stroke-width="2"/>
<path d="M197.744 6.62041C199.013 6.62041 200.012 6.92374 200.74 7.53041C201.468 8.13708 201.832 8.97241 201.832 10.0364C201.832 11.1004 201.468 11.9357 200.74 12.5424C200.012 13.1491 199.013 13.4524 197.744 13.4524H195.322V16.4204H193.922V6.62041H197.744ZM197.702 12.2344C198.589 12.2344 199.265 12.0477 199.732 11.6744C200.199 11.2917 200.432 10.7457 200.432 10.0364C200.432 9.32708 200.199 8.78574 199.732 8.41241C199.265 8.02974 198.589 7.83841 197.702 7.83841H195.322V12.2344H197.702ZM210.091 16.4204L207.977 13.4104C207.715 13.4291 207.51 13.4384 207.361 13.4384H204.939V16.4204H203.539V6.62041H207.361C208.63 6.62041 209.629 6.92374 210.357 7.53041C211.085 8.13708 211.449 8.97241 211.449 10.0364C211.449 10.7924 211.262 11.4364 210.889 11.9684C210.515 12.5004 209.983 12.8877 209.293 13.1304L211.617 16.4204H210.091ZM207.319 12.2484C208.205 12.2484 208.882 12.0571 209.349 11.6744C209.815 11.2917 210.049 10.7457 210.049 10.0364C210.049 9.32708 209.815 8.78574 209.349 8.41241C208.882 8.02974 208.205 7.83841 207.319 7.83841H204.939V12.2484H207.319ZM217.785 16.5324C216.795 16.5324 215.904 16.3177 215.111 15.8884C214.317 15.4497 213.692 14.8477 213.235 14.0824C212.787 13.3171 212.563 12.4631 212.563 11.5204C212.563 10.5777 212.787 9.72374 213.235 8.95841C213.692 8.19308 214.317 7.59574 215.111 7.16641C215.904 6.72774 216.795 6.50841 217.785 6.50841C218.765 6.50841 219.651 6.72774 220.445 7.16641C221.238 7.59574 221.859 8.19308 222.307 8.95841C222.755 9.71441 222.979 10.5684 222.979 11.5204C222.979 12.4724 222.755 13.3311 222.307 14.0964C221.859 14.8524 221.238 15.4497 220.445 15.8884C219.651 16.3177 218.765 16.5324 217.785 16.5324ZM217.785 15.2864C218.503 15.2864 219.147 15.1231 219.717 14.7964C220.295 14.4697 220.748 14.0217 221.075 13.4524C221.411 12.8737 221.579 12.2297 221.579 11.5204C221.579 10.8111 221.411 10.1717 221.075 9.60241C220.748 9.02374 220.295 8.57108 219.717 8.24441C219.147 7.91774 218.503 7.75441 217.785 7.75441C217.066 7.75441 216.413 7.91774 215.825 8.24441C215.246 8.57108 214.789 9.02374 214.453 9.60241C214.126 10.1717 213.963 10.8111 213.963 11.5204C213.963 12.2297 214.126 12.8737 214.453 13.4524C214.789 14.0217 215.246 14.4697 215.825 14.7964C216.413 15.1231 217.066 15.2864 217.785 15.2864ZM226.168 7.83841V11.2544H231.082V12.4584H226.168V16.4204H224.768V6.62041H231.684V7.83841H226.168ZM240.417 15.2024V16.4204H233.305V6.62041H240.221V7.83841H234.705V10.8484H239.619V12.0384H234.705V15.2024H240.417ZM245.19 16.5324C244.453 16.5324 243.739 16.4204 243.048 16.1964C242.367 15.9631 241.83 15.6644 241.438 15.3004L241.956 14.2084C242.329 14.5444 242.805 14.8197 243.384 15.0344C243.972 15.2397 244.574 15.3424 245.19 15.3424C246.002 15.3424 246.609 15.2071 247.01 14.9364C247.411 14.6564 247.612 14.2877 247.612 13.8304C247.612 13.4944 247.5 13.2237 247.276 13.0184C247.061 12.8037 246.791 12.6404 246.464 12.5284C246.147 12.4164 245.694 12.2904 245.106 12.1504C244.369 11.9731 243.771 11.7957 243.314 11.6184C242.866 11.4411 242.479 11.1704 242.152 10.8064C241.835 10.4331 241.676 9.93374 241.676 9.30841C241.676 8.78574 241.811 8.31441 242.082 7.89441C242.362 7.47441 242.782 7.13841 243.342 6.88641C243.902 6.63441 244.597 6.50841 245.428 6.50841C246.007 6.50841 246.576 6.58308 247.136 6.73241C247.696 6.88174 248.177 7.09641 248.578 7.37641L248.116 8.49641C247.705 8.23508 247.267 8.03908 246.8 7.90841C246.333 7.76841 245.876 7.69841 245.428 7.69841C244.635 7.69841 244.037 7.84308 243.636 8.13241C243.244 8.42174 243.048 8.79508 243.048 9.25241C243.048 9.58841 243.16 9.86374 243.384 10.0784C243.608 10.2837 243.883 10.4471 244.21 10.5684C244.546 10.6804 244.999 10.8017 245.568 10.9324C246.305 11.1097 246.898 11.2871 247.346 11.4644C247.794 11.6417 248.177 11.9124 248.494 12.2764C248.821 12.6404 248.984 13.1304 248.984 13.7464C248.984 14.2597 248.844 14.7311 248.564 15.1604C248.284 15.5804 247.859 15.9164 247.29 16.1684C246.721 16.4111 246.021 16.5324 245.19 16.5324ZM253.535 16.5324C252.798 16.5324 252.084 16.4204 251.393 16.1964C250.712 15.9631 250.175 15.6644 249.783 15.3004L250.301 14.2084C250.675 14.5444 251.151 14.8197 251.729 15.0344C252.317 15.2397 252.919 15.3424 253.535 15.3424C254.347 15.3424 254.954 15.2071 255.355 14.9364C255.757 14.6564 255.957 14.2877 255.957 13.8304C255.957 13.4944 255.845 13.2237 255.621 13.0184C255.407 12.8037 255.136 12.6404 254.809 12.5284C254.492 12.4164 254.039 12.2904 253.451 12.1504C252.714 11.9731 252.117 11.7957 251.659 11.6184C251.211 11.4411 250.824 11.1704 250.497 10.8064C250.18 10.4331 250.021 9.93374 250.021 9.30841C250.021 8.78574 250.157 8.31441 250.427 7.89441C250.707 7.47441 251.127 7.13841 251.687 6.88641C252.247 6.63441 252.943 6.50841 253.773 6.50841C254.352 6.50841 254.921 6.58308 255.481 6.73241C256.041 6.88174 256.522 7.09641 256.923 7.37641L256.461 8.49641C256.051 8.23508 255.612 8.03908 255.145 7.90841C254.679 7.76841 254.221 7.69841 253.773 7.69841C252.98 7.69841 252.383 7.84308 251.981 8.13241C251.589 8.42174 251.393 8.79508 251.393 9.25241C251.393 9.58841 251.505 9.86374 251.729 10.0784C251.953 10.2837 252.229 10.4471 252.555 10.5684C252.891 10.6804 253.344 10.8017 253.913 10.9324C254.651 11.1097 255.243 11.2871 255.691 11.4644C256.139 11.6417 256.522 11.9124 256.839 12.2764C257.166 12.6404 257.329 13.1304 257.329 13.7464C257.329 14.2597 257.189 14.7311 256.909 15.1604C256.629 15.5804 256.205 15.9164 255.635 16.1684C255.066 16.4111 254.366 16.5324 253.535 16.5324ZM263.449 16.5324C262.459 16.5324 261.568 16.3177 260.775 15.8884C259.981 15.4497 259.356 14.8477 258.899 14.0824C258.451 13.3171 258.227 12.4631 258.227 11.5204C258.227 10.5777 258.451 9.72374 258.899 8.95841C259.356 8.19308 259.981 7.59574 260.775 7.16641C261.568 6.72774 262.459 6.50841 263.449 6.50841C264.429 6.50841 265.315 6.72774 266.109 7.16641C266.902 7.59574 267.523 8.19308 267.971 8.95841C268.419 9.71441 268.643 10.5684 268.643 11.5204C268.643 12.4724 268.419 13.3311 267.971 14.0964C267.523 14.8524 266.902 15.4497 266.109 15.8884C265.315 16.3177 264.429 16.5324 263.449 16.5324ZM263.449 15.2864C264.167 15.2864 264.811 15.1231 265.381 14.7964C265.959 14.4697 266.412 14.0217 266.739 13.4524C267.075 12.8737 267.243 12.2297 267.243 11.5204C267.243 10.8111 267.075 10.1717 266.739 9.60241C266.412 9.02374 265.959 8.57108 265.381 8.24441C264.811 7.91774 264.167 7.75441 263.449 7.75441C262.73 7.75441 262.077 7.91774 261.489 8.24441C260.91 8.57108 260.453 9.02374 260.117 9.60241C259.79 10.1717 259.627 10.8111 259.627 11.5204C259.627 12.2297 259.79 12.8737 260.117 13.4524C260.453 14.0217 260.91 14.4697 261.489 14.7964C262.077 15.1231 262.73 15.2864 263.449 15.2864ZM276.984 16.4204L274.87 13.4104C274.609 13.4291 274.404 13.4384 274.254 13.4384H271.832V16.4204H270.432V6.62041H274.254C275.524 6.62041 276.522 6.92374 277.25 7.53041C277.978 8.13708 278.342 8.97241 278.342 10.0364C278.342 10.7924 278.156 11.4364 277.782 11.9684C277.409 12.5004 276.877 12.8877 276.186 13.1304L278.51 16.4204H276.984ZM274.212 12.2484C275.099 12.2484 275.776 12.0571 276.242 11.6744C276.709 11.2917 276.942 10.7457 276.942 10.0364C276.942 9.32708 276.709 8.78574 276.242 8.41241C275.776 8.02974 275.099 7.83841 274.212 7.83841H271.832V12.2484H274.212ZM292.176 6.62041L287.878 16.4204H286.492L282.18 6.62041H283.692L287.22 14.6704L290.776 6.62041H292.176ZM292.887 16.5044C292.626 16.5044 292.402 16.4157 292.215 16.2384C292.029 16.0517 291.935 15.8184 291.935 15.5384C291.935 15.2677 292.029 15.0437 292.215 14.8664C292.402 14.6797 292.626 14.5864 292.887 14.5864C293.149 14.5864 293.368 14.6751 293.545 14.8524C293.723 15.0297 293.811 15.2584 293.811 15.5384C293.811 15.8184 293.718 16.0517 293.531 16.2384C293.354 16.4157 293.139 16.5044 292.887 16.5044ZM305.545 16.4204L303.431 13.4104C303.17 13.4291 302.964 13.4384 302.815 13.4384H300.393V16.4204H298.993V6.62041H302.815C304.084 6.62041 305.083 6.92374 305.811 7.53041C306.539 8.13708 306.903 8.97241 306.903 10.0364C306.903 10.7924 306.716 11.4364 306.343 11.9684C305.97 12.5004 305.438 12.8877 304.747 13.1304L307.071 16.4204H305.545ZM302.773 12.2484C303.66 12.2484 304.336 12.0571 304.803 11.6744C305.27 11.2917 305.503 10.7457 305.503 10.0364C305.503 9.32708 305.27 8.78574 304.803 8.41241C304.336 8.02974 303.66 7.83841 302.773 7.83841H300.393V12.2484H302.773ZM315.059 13.9704H309.851L308.773 16.4204H307.331L311.769 6.62041H313.155L317.607 16.4204H316.137L315.059 13.9704ZM314.569 12.8504L312.455 8.04841L310.341 12.8504H314.569ZM320.184 16.5324C319.596 16.5324 319.05 16.4111 318.546 16.1684C318.042 15.9164 317.636 15.5664 317.328 15.1184L318.14 14.1664C318.681 14.9411 319.363 15.3284 320.184 15.3284C320.735 15.3284 321.15 15.1604 321.43 14.8244C321.719 14.4884 321.864 13.9937 321.864 13.3404V7.83841H318.322V6.62041H323.25V13.2704C323.25 14.3531 322.989 15.1697 322.466 15.7204C321.953 16.2617 321.192 16.5324 320.184 16.5324ZM331.791 13.9704H326.583L325.505 16.4204H324.063L328.501 6.62041H329.887L334.339 16.4204H332.869L331.791 13.9704ZM331.301 12.8504L329.187 8.04841L327.073 12.8504H331.301ZM339.272 6.62041C340.542 6.62041 341.54 6.92374 342.268 7.53041C342.996 8.13708 343.36 8.97241 343.36 10.0364C343.36 11.1004 342.996 11.9357 342.268 12.5424C341.54 13.1491 340.542 13.4524 339.272 13.4524H336.85V16.4204H335.45V6.62041H339.272ZM339.23 12.2344C340.117 12.2344 340.794 12.0477 341.26 11.6744C341.727 11.2917 341.96 10.7457 341.96 10.0364C341.96 9.32708 341.727 8.78574 341.26 8.41241C340.794 8.02974 340.117 7.83841 339.23 7.83841H336.85V12.2344H339.23ZM348.889 6.62041C350.159 6.62041 351.157 6.92374 351.885 7.53041C352.613 8.13708 352.977 8.97241 352.977 10.0364C352.977 11.1004 352.613 11.9357 351.885 12.5424C351.157 13.1491 350.159 13.4524 348.889 13.4524H346.467V16.4204H345.067V6.62041H348.889ZM348.847 12.2344C349.734 12.2344 350.411 12.0477 350.877 11.6744C351.344 11.2917 351.577 10.7457 351.577 10.0364C351.577 9.32708 351.344 8.78574 350.877 8.41241C350.411 8.02974 349.734 7.83841 348.847 7.83841H346.467V12.2344H348.847ZM360.436 13.9704H355.228L354.15 16.4204H352.708L357.146 6.62041H358.532L362.984 16.4204H361.514L360.436 13.9704ZM359.946 12.8504L357.832 8.04841L355.718 12.8504H359.946ZM372.524 6.62041V16.4204H371.376L365.496 9.11241V16.4204H364.096V6.62041H365.244L371.124 13.9284V6.62041H372.524ZM387.603 16.4204L387.589 9.28041L384.047 15.2304H383.403L379.861 9.32241V16.4204H378.517V6.62041H379.665L383.753 13.5084L387.785 6.62041H388.933L388.947 16.4204H387.603ZM398.65 15.2024V16.4204H391.538V6.62041H398.454V7.83841H392.938V10.8484H397.852V12.0384H392.938V15.2024H398.65ZM409.653 16.4204L409.639 9.28041L406.097 15.2304H405.453L401.911 9.32241V16.4204H400.567V6.62041H401.715L405.803 13.5084L409.835 6.62041H410.983L410.997 16.4204H409.653ZM418.012 16.5324C417.023 16.5324 416.131 16.3177 415.338 15.8884C414.545 15.4497 413.919 14.8477 413.462 14.0824C413.014 13.3171 412.79 12.4631 412.79 11.5204C412.79 10.5777 413.014 9.72374 413.462 8.95841C413.919 8.19308 414.545 7.59574 415.338 7.16641C416.131 6.72774 417.023 6.50841 418.012 6.50841C418.992 6.50841 419.879 6.72774 420.672 7.16641C421.465 7.59574 422.086 8.19308 422.534 8.95841C422.982 9.71441 423.206 10.5684 423.206 11.5204C423.206 12.4724 422.982 13.3311 422.534 14.0964C422.086 14.8524 421.465 15.4497 420.672 15.8884C419.879 16.3177 418.992 16.5324 418.012 16.5324ZM418.012 15.2864C418.731 15.2864 419.375 15.1231 419.944 14.7964C420.523 14.4697 420.975 14.0217 421.302 13.4524C421.638 12.8737 421.806 12.2297 421.806 11.5204C421.806 10.8111 421.638 10.1717 421.302 9.60241C420.975 9.02374 420.523 8.57108 419.944 8.24441C419.375 7.91774 418.731 7.75441 418.012 7.75441C417.293 7.75441 416.64 7.91774 416.052 8.24441C415.473 8.57108 415.016 9.02374 414.68 9.60241C414.353 10.1717 414.19 10.8111 414.19 11.5204C414.19 12.2297 414.353 12.8737 414.68 13.4524C415.016 14.0217 415.473 14.4697 416.052 14.7964C416.64 15.1231 417.293 15.2864 418.012 15.2864ZM431.548 16.4204L429.434 13.4104C429.172 13.4291 428.967 13.4384 428.818 13.4384H426.396V16.4204H424.996V6.62041H428.818C430.087 6.62041 431.086 6.92374 431.814 7.53041C432.542 8.13708 432.906 8.97241 432.906 10.0364C432.906 10.7924 432.719 11.4364 432.346 11.9684C431.972 12.5004 431.44 12.8877 430.75 13.1304L433.074 16.4204H431.548ZM428.776 12.2484C429.662 12.2484 430.339 12.0571 430.806 11.6744C431.272 11.2917 431.506 10.7457 431.506 10.0364C431.506 9.32708 431.272 8.78574 430.806 8.41241C430.339 8.02974 429.662 7.83841 428.776 7.83841H426.396V12.2484H428.776ZM434.818 6.62041H436.218V16.4204H434.818V6.62041ZM445.046 13.9704H439.838L438.76 16.4204H437.318L441.756 6.62041H443.142L447.594 16.4204H446.124L445.046 13.9704ZM444.556 12.8504L442.442 8.04841L440.328 12.8504H444.556ZM448.706 6.62041H450.106V15.2024H455.412V16.4204H448.706V6.62041Z" fill="#141414"/>
<path d="M244.054 67.4204L244.006 45.1484L232.966 63.5804H230.182L219.142 45.4364V67.4204H213.19V33.8204H218.326L231.67 56.0924L244.774 33.8204H249.91L249.958 67.4204H244.054ZM279.626 59.6444H262.826L259.514 67.4204H253.082L268.202 33.8204H274.346L289.514 67.4204H282.986L279.626 59.6444ZM277.562 54.7484L271.226 40.0604L264.938 54.7484H277.562ZM303.003 67.9004C300.411 67.9004 297.899 67.5324 295.467 66.7964C293.067 66.0604 291.163 65.0844 289.755 63.8684L291.915 59.0204C293.291 60.1084 294.971 61.0044 296.955 61.7084C298.971 62.3804 300.987 62.7164 303.003 62.7164C305.499 62.7164 307.355 62.3164 308.571 61.5164C309.819 60.7164 310.443 59.6604 310.443 58.3484C310.443 57.3884 310.091 56.6044 309.387 55.9964C308.715 55.3564 307.851 54.8604 306.795 54.5084C305.739 54.1564 304.299 53.7564 302.475 53.3084C299.915 52.7004 297.835 52.0924 296.235 51.4844C294.667 50.8764 293.307 49.9324 292.155 48.6524C291.035 47.3404 290.475 45.5804 290.475 43.3724C290.475 41.5164 290.971 39.8364 291.963 38.3324C292.987 36.7964 294.507 35.5804 296.523 34.6844C298.571 33.7884 301.067 33.3404 304.011 33.3404C306.059 33.3404 308.075 33.5964 310.059 34.1084C312.043 34.6204 313.755 35.3564 315.195 36.3164L313.227 41.1644C311.755 40.3004 310.219 39.6444 308.619 39.1964C307.019 38.7484 305.467 38.5244 303.963 38.5244C301.499 38.5244 299.659 38.9404 298.443 39.7724C297.259 40.6044 296.667 41.7084 296.667 43.0844C296.667 44.0444 297.003 44.8284 297.675 45.4364C298.379 46.0444 299.259 46.5244 300.315 46.8764C301.371 47.2284 302.811 47.6284 304.635 48.0764C307.131 48.6524 309.179 49.2604 310.779 49.9004C312.379 50.5084 313.739 51.4524 314.859 52.7324C316.011 54.0124 316.587 55.7404 316.587 57.9164C316.587 59.7724 316.075 61.4524 315.051 62.9564C314.059 64.4604 312.539 65.6604 310.491 66.5564C308.443 67.4524 305.947 67.9004 303.003 67.9004ZM327.922 39.1004H316.786V33.8204H345.298V39.1004H334.162V67.4204H327.922V39.1004ZM373.981 62.1884V67.4204H348.781V33.8204H373.309V39.0524H355.021V47.7884H371.245V52.9244H355.021V62.1884H373.981ZM401.721 67.4204L394.857 57.5804C394.569 57.6124 394.137 57.6284 393.561 57.6284H385.977V67.4204H379.737V33.8204H393.561C396.473 33.8204 399.001 34.3004 401.145 35.2604C403.321 36.2204 404.985 37.5964 406.137 39.3884C407.289 41.1804 407.865 43.3084 407.865 45.7724C407.865 48.3004 407.241 50.4764 405.993 52.3004C404.777 54.1244 403.017 55.4844 400.713 56.3804L408.441 67.4204H401.721ZM401.577 45.7724C401.577 43.6284 400.873 41.9804 399.465 40.8284C398.057 39.6764 395.993 39.1004 393.273 39.1004H385.977V52.4924H393.273C395.993 52.4924 398.057 51.9164 399.465 50.7644C400.873 49.5804 401.577 47.9164 401.577 45.7724ZM424.062 67.9004C421.47 67.9004 418.958 67.5324 416.526 66.7964C414.126 66.0604 412.222 65.0844 410.814 63.8684L412.974 59.0204C414.35 60.1084 416.03 61.0044 418.014 61.7084C420.03 62.3804 422.046 62.7164 424.062 62.7164C426.558 62.7164 428.414 62.3164 429.63 61.5164C430.878 60.7164 431.502 59.6604 431.502 58.3484C431.502 57.3884 431.15 56.6044 430.446 55.9964C429.774 55.3564 428.91 54.8604 427.854 54.5084C426.798 54.1564 425.358 53.7564 423.534 53.3084C420.974 52.7004 418.894 52.0924 417.294 51.4844C415.726 50.8764 414.366 49.9324 413.214 48.6524C412.094 47.3404 411.534 45.5804 411.534 43.3724C411.534 41.5164 412.03 39.8364 413.022 38.3324C414.046 36.7964 415.566 35.5804 417.582 34.6844C419.63 33.7884 422.126 33.3404 425.07 33.3404C427.118 33.3404 429.134 33.5964 431.118 34.1084C433.102 34.6204 434.814 35.3564 436.254 36.3164L434.286 41.1644C432.814 40.3004 431.278 39.6444 429.678 39.1964C428.078 38.7484 426.526 38.5244 425.022 38.5244C422.558 38.5244 420.718 38.9404 419.502 39.7724C418.318 40.6044 417.726 41.7084 417.726 43.0844C417.726 44.0444 418.062 44.8284 418.734 45.4364C419.438 46.0444 420.318 46.5244 421.374 46.8764C422.43 47.2284 423.87 47.6284 425.694 48.0764C428.19 48.6524 430.238 49.2604 431.838 49.9004C433.438 50.5084 434.798 51.4524 435.918 52.7324C437.07 54.0124 437.646 55.7404 437.646 57.9164C437.646 59.7724 437.134 61.4524 436.11 62.9564C435.118 64.4604 433.598 65.6604 431.55 66.5564C429.502 67.4524 427.006 67.9004 424.062 67.9004ZM231.016 120.9C227.624 120.9 224.552 120.164 221.8 118.692C219.08 117.188 216.936 115.124 215.368 112.5C213.832 109.876 213.064 106.916 213.064 103.62C213.064 100.324 213.848 97.3644 215.416 94.7404C216.984 92.1164 219.128 90.0684 221.848 88.5964C224.6 87.0924 227.672 86.3404 231.064 86.3404C233.816 86.3404 236.328 86.8204 238.6 87.7804C240.872 88.7404 242.792 90.1324 244.36 91.9564L240.328 95.7484C237.896 93.1244 234.904 91.8124 231.352 91.8124C229.048 91.8124 226.984 92.3244 225.16 93.3484C223.336 94.3404 221.912 95.7324 220.888 97.5244C219.864 99.3164 219.352 101.348 219.352 103.62C219.352 105.892 219.864 107.924 220.888 109.716C221.912 111.508 223.336 112.916 225.16 113.94C226.984 114.932 229.048 115.428 231.352 115.428C234.904 115.428 237.896 114.1 240.328 111.444L244.36 115.284C242.792 117.108 240.856 118.5 238.552 119.46C236.28 120.42 233.768 120.9 231.016 120.9ZM264.131 120.9C260.707 120.9 257.619 120.164 254.867 118.692C252.115 117.188 249.955 115.124 248.387 112.5C246.819 109.844 246.035 106.884 246.035 103.62C246.035 100.356 246.819 97.4124 248.387 94.7884C249.955 92.1324 252.115 90.0684 254.867 88.5964C257.619 87.0924 260.707 86.3404 264.131 86.3404C267.555 86.3404 270.643 87.0924 273.395 88.5964C276.147 90.0684 278.307 92.1164 279.875 94.7404C281.443 97.3644 282.227 100.324 282.227 103.62C282.227 106.916 281.443 109.876 279.875 112.5C278.307 115.124 276.147 117.188 273.395 118.692C270.643 120.164 267.555 120.9 264.131 120.9ZM264.131 115.428C266.371 115.428 268.387 114.932 270.179 113.94C271.971 112.916 273.379 111.508 274.403 109.716C275.427 107.892 275.939 105.86 275.939 103.62C275.939 101.38 275.427 99.3644 274.403 97.5724C273.379 95.7484 271.971 94.3404 270.179 93.3484C268.387 92.3244 266.371 91.8124 264.131 91.8124C261.891 91.8124 259.875 92.3244 258.083 93.3484C256.291 94.3404 254.883 95.7484 253.859 97.5724C252.835 99.3644 252.323 101.38 252.323 103.62C252.323 105.86 252.835 107.892 253.859 109.716C254.883 111.508 256.291 112.916 258.083 113.94C259.875 114.932 261.891 115.428 264.131 115.428ZM287.642 86.8204H293.882V115.14H311.45V120.42H287.642V86.8204ZM315.176 86.8204H321.416V115.14H338.984V120.42H315.176V86.8204ZM367.91 115.188V120.42H342.71V86.8204H367.238V92.0524H348.95V100.788H365.174V105.924H348.95V115.188H367.91ZM396.47 103.236H402.374V116.628C400.646 118.004 398.63 119.06 396.326 119.796C394.022 120.532 391.654 120.9 389.222 120.9C385.798 120.9 382.71 120.164 379.958 118.692C377.206 117.188 375.046 115.124 373.478 112.5C371.91 109.876 371.126 106.916 371.126 103.62C371.126 100.324 371.91 97.3644 373.478 94.7404C375.046 92.1164 377.206 90.0684 379.958 88.5964C382.742 87.0924 385.862 86.3404 389.318 86.3404C392.134 86.3404 394.694 86.8044 396.998 87.7324C399.302 88.6604 401.238 90.0204 402.806 91.8124L398.87 95.6524C396.31 93.0924 393.222 91.8124 389.606 91.8124C387.238 91.8124 385.126 92.3084 383.27 93.3004C381.446 94.2924 380.006 95.6844 378.95 97.4764C377.926 99.2684 377.414 101.316 377.414 103.62C377.414 105.86 377.926 107.876 378.95 109.668C380.006 111.46 381.446 112.868 383.27 113.892C385.126 114.916 387.222 115.428 389.558 115.428C392.182 115.428 394.486 114.852 396.47 113.7V103.236ZM434.604 115.188V120.42H409.404V86.8204H433.932V92.0524H415.644V100.788H431.868V105.924H415.644V115.188H434.604Z" fill="#141414"/>
<path d="M208.228 139.386H203.908V137.82H214.33V139.386H210.01V150.42H208.228V139.386ZM226.676 137.82V150.42H224.876V144.804H217.64V150.42H215.84V137.82H217.64V143.238H224.876V137.82H226.676ZM235.218 150.564C233.538 150.564 232.23 150.084 231.294 149.124C230.358 148.164 229.89 146.784 229.89 144.984V137.82H231.69V144.912C231.69 147.612 232.872 148.962 235.236 148.962C236.388 148.962 237.27 148.632 237.882 147.972C238.494 147.3 238.8 146.28 238.8 144.912V137.82H240.546V144.984C240.546 146.796 240.078 148.182 239.142 149.142C238.206 150.09 236.898 150.564 235.218 150.564ZM252.21 150.42L249.492 146.55C249.156 146.574 248.892 146.586 248.7 146.586H245.586V150.42H243.786V137.82H248.7C250.332 137.82 251.616 138.21 252.552 138.99C253.488 139.77 253.956 140.844 253.956 142.212C253.956 143.184 253.716 144.012 253.236 144.696C252.756 145.38 252.072 145.878 251.184 146.19L254.172 150.42H252.21ZM248.646 145.056C249.786 145.056 250.656 144.81 251.256 144.318C251.856 143.826 252.156 143.124 252.156 142.212C252.156 141.3 251.856 140.604 251.256 140.124C250.656 139.632 249.786 139.386 248.646 139.386H245.586V145.056H248.646ZM264.442 147.27H257.746L256.36 150.42H254.506L260.212 137.82H261.994L267.718 150.42H265.828L264.442 147.27ZM263.812 145.83L261.094 139.656L258.376 145.83H263.812ZM279.424 137.82L273.898 150.42H272.116L266.572 137.82H268.516L273.052 148.17L277.624 137.82H279.424ZM286.128 150.564C284.856 150.564 283.71 150.288 282.69 149.736C281.67 149.172 280.866 148.398 280.278 147.414C279.702 146.43 279.414 145.332 279.414 144.12C279.414 142.908 279.702 141.81 280.278 140.826C280.866 139.842 281.67 139.074 282.69 138.522C283.71 137.958 284.856 137.676 286.128 137.676C287.388 137.676 288.528 137.958 289.548 138.522C290.568 139.074 291.366 139.842 291.942 140.826C292.518 141.798 292.806 142.896 292.806 144.12C292.806 145.344 292.518 146.448 291.942 147.432C291.366 148.404 290.568 149.172 289.548 149.736C288.528 150.288 287.388 150.564 286.128 150.564ZM286.128 148.962C287.052 148.962 287.88 148.752 288.612 148.332C289.356 147.912 289.938 147.336 290.358 146.604C290.79 145.86 291.006 145.032 291.006 144.12C291.006 143.208 290.79 142.386 290.358 141.654C289.938 140.91 289.356 140.328 288.612 139.908C287.88 139.488 287.052 139.278 286.128 139.278C285.204 139.278 284.364 139.488 283.608 139.908C282.864 140.328 282.276 140.91 281.844 141.654C281.424 142.386 281.214 143.208 281.214 144.12C281.214 145.032 281.424 145.86 281.844 146.604C282.276 147.336 282.864 147.912 283.608 148.332C284.364 148.752 285.204 148.962 286.128 148.962ZM300.795 150.564C299.523 150.564 298.377 150.288 297.357 149.736C296.337 149.172 295.533 148.398 294.945 147.414C294.369 146.43 294.081 145.332 294.081 144.12C294.081 142.908 294.369 141.81 294.945 140.826C295.533 139.842 296.337 139.074 297.357 138.522C298.377 137.958 299.523 137.676 300.795 137.676C302.055 137.676 303.195 137.958 304.215 138.522C305.235 139.074 306.033 139.842 306.609 140.826C307.185 141.798 307.473 142.896 307.473 144.12C307.473 145.344 307.185 146.448 306.609 147.432C306.033 148.404 305.235 149.172 304.215 149.736C303.195 150.288 302.055 150.564 300.795 150.564ZM300.795 148.962C301.719 148.962 302.547 148.752 303.279 148.332C304.023 147.912 304.605 147.336 305.025 146.604C305.457 145.86 305.673 145.032 305.673 144.12C305.673 143.208 305.457 142.386 305.025 141.654C304.605 140.91 304.023 140.328 303.279 139.908C302.547 139.488 301.719 139.278 300.795 139.278C299.871 139.278 299.031 139.488 298.275 139.908C297.531 140.328 296.943 140.91 296.511 141.654C296.091 142.386 295.881 143.208 295.881 144.12C295.881 145.032 296.091 145.86 296.511 146.604C296.943 147.336 297.531 147.912 298.275 148.332C299.031 148.752 299.871 148.962 300.795 148.962ZM318.198 150.42L315.48 146.55C315.144 146.574 314.88 146.586 314.688 146.586H311.574V150.42H309.774V137.82H314.688C316.32 137.82 317.604 138.21 318.54 138.99C319.476 139.77 319.944 140.844 319.944 142.212C319.944 143.184 319.704 144.012 319.224 144.696C318.744 145.38 318.06 145.878 317.172 146.19L320.16 150.42H318.198ZM314.634 145.056C315.774 145.056 316.644 144.81 317.244 144.318C317.844 143.826 318.144 143.124 318.144 142.212C318.144 141.3 317.844 140.604 317.244 140.124C316.644 139.632 315.774 139.386 314.634 139.386H311.574V145.056H314.634ZM326.966 148.062C327.302 148.062 327.578 148.182 327.794 148.422C328.022 148.65 328.136 148.938 328.136 149.286C328.136 149.466 328.112 149.64 328.064 149.808C328.028 149.976 327.95 150.234 327.83 150.582L326.984 153.084H325.85L326.516 150.402C326.288 150.318 326.102 150.18 325.958 149.988C325.826 149.784 325.76 149.55 325.76 149.286C325.76 148.926 325.874 148.632 326.102 148.404C326.33 148.176 326.618 148.062 326.966 148.062ZM340.433 150.564C339.173 150.564 338.033 150.288 337.013 149.736C336.005 149.172 335.213 148.404 334.637 147.432C334.061 146.448 333.773 145.344 333.773 144.12C333.773 142.896 334.061 141.798 334.637 140.826C335.213 139.842 336.011 139.074 337.031 138.522C338.051 137.958 339.191 137.676 340.451 137.676C341.435 137.676 342.335 137.844 343.151 138.18C343.967 138.504 344.663 138.99 345.239 139.638L344.069 140.772C343.121 139.776 341.939 139.278 340.523 139.278C339.587 139.278 338.741 139.488 337.985 139.908C337.229 140.328 336.635 140.91 336.203 141.654C335.783 142.386 335.573 143.208 335.573 144.12C335.573 145.032 335.783 145.86 336.203 146.604C336.635 147.336 337.229 147.912 337.985 148.332C338.741 148.752 339.587 148.962 340.523 148.962C341.927 148.962 343.109 148.458 344.069 147.45L345.239 148.584C344.663 149.232 343.961 149.724 343.133 150.06C342.317 150.396 341.417 150.564 340.433 150.564ZM358.192 137.82V150.42H356.392V144.804H349.156V150.42H347.356V137.82H349.156V143.238H356.392V137.82H358.192ZM370.658 148.854V150.42H361.514V137.82H370.406V139.386H363.314V143.256H369.632V144.786H363.314V148.854H370.658ZM381.546 150.42L378.828 146.55C378.492 146.574 378.228 146.586 378.036 146.586H374.922V150.42H373.122V137.82H378.036C379.668 137.82 380.952 138.21 381.888 138.99C382.824 139.77 383.292 140.844 383.292 142.212C383.292 143.184 383.052 144.012 382.572 144.696C382.092 145.38 381.408 145.878 380.52 146.19L383.508 150.42H381.546ZM377.982 145.056C379.122 145.056 379.992 144.81 380.592 144.318C381.192 143.826 381.492 143.124 381.492 142.212C381.492 141.3 381.192 140.604 380.592 140.124C379.992 139.632 379.122 139.386 377.982 139.386H374.922V145.056H377.982ZM388.077 139.386H383.757V137.82H394.179V139.386H389.859V150.42H388.077V139.386ZM406.525 137.82V150.42H404.725V144.804H397.489V150.42H395.689V137.82H397.489V143.238H404.725V137.82H406.525ZM417.875 147.27H411.179L409.793 150.42H407.939L413.645 137.82H415.427L421.151 150.42H419.261L417.875 147.27ZM417.245 145.83L414.527 139.656L411.809 145.83H417.245ZM422.58 137.82H424.38V148.854H431.202V150.42H422.58V137.82ZM440.898 147.27H434.202L432.816 150.42H430.962L436.668 137.82H438.45L444.174 150.42H442.284L440.898 147.27ZM440.268 145.83L437.55 139.656L434.832 145.83H440.268Z" fill="#141414"/>
</svg>
