<svg width="129" height="128" viewBox="0 0 129 128" fill="none" xmlns="http://www.w3.org/2000/svg">
<path d="M55.6239 17.7556C55.6239 16.4481 54.5643 15.3882 53.257 15.3882C51.9498 15.3882 50.89 16.4481 50.89 17.7556C50.89 19.0631 51.9498 20.123 53.257 20.123C54.5643 20.123 55.6239 19.0631 55.6239 17.7556Z" fill="#141414"/>
<path d="M74.5598 17.7556C74.5598 16.4481 73.4997 15.3882 72.193 15.3882C70.8852 15.3882 69.8257 16.4481 69.8257 17.7556C69.8257 19.0631 70.8852 20.123 72.193 20.123C73.4997 20.123 74.5598 19.0631 74.5598 17.7556Z" fill="#141414"/>
<path d="M89.9451 24.8579C89.9451 23.5504 88.8855 22.4905 87.5777 22.4905C86.271 22.4905 85.2109 23.5504 85.2109 24.8579C85.2109 26.1654 86.271 27.2253 87.5777 27.2253C88.8855 27.2253 89.9451 26.1654 89.9451 24.8579Z" fill="#141414"/>
<path d="M102.964 36.6949C102.964 35.3875 101.904 34.3275 100.596 34.3275C99.2896 34.3275 98.2295 35.3875 98.2295 36.6949C98.2295 38.0024 99.2896 39.0623 100.596 39.0623C101.904 39.0623 102.964 38.0024 102.964 36.6949Z" fill="#141414"/>
<path d="M110.064 53.2669C110.064 51.9594 109.004 50.8995 107.697 50.8995C106.39 50.8995 105.33 51.9594 105.33 53.2669C105.33 54.5744 106.39 55.6345 107.697 55.6345C109.004 55.6345 110.064 54.5744 110.064 53.2669Z" fill="#141414"/>
<path d="M110.064 72.2059C110.064 70.8987 109.004 69.8386 107.697 69.8386C106.39 69.8386 105.33 70.8987 105.33 72.2059C105.33 73.5138 106.39 74.5738 107.697 74.5738C109.004 74.5738 110.064 73.5138 110.064 72.2059Z" fill="#141414"/>
<path d="M104.146 87.5946C104.146 86.2868 103.087 85.2272 101.78 85.2272C100.472 85.2272 99.4128 86.2868 99.4128 87.5946C99.4128 88.9018 100.472 89.9619 101.78 89.9619C103.087 89.9619 104.146 88.9018 104.146 87.5946Z" fill="#141414"/>
<path d="M91.1285 101.799C91.1285 100.491 90.0684 99.4313 88.7617 99.4313C87.4539 99.4313 86.3943 100.491 86.3943 101.799C86.3943 103.107 87.4539 104.167 88.7617 104.167C90.0684 104.167 91.1285 103.107 91.1285 101.799Z" fill="#141414"/>
<path d="M74.5598 106.534C74.5598 105.226 73.4997 104.167 72.193 104.167C70.8852 104.167 69.8257 105.226 69.8257 106.534C69.8257 107.841 70.8852 108.901 72.193 108.901C73.4997 108.901 74.5598 107.841 74.5598 106.534Z" fill="#141414"/>
<path d="M56.8072 107.717C56.8072 106.41 55.7477 105.35 54.4404 105.35C53.1332 105.35 52.0735 106.41 52.0735 107.717C52.0735 109.025 53.1332 110.085 54.4404 110.085C55.7477 110.085 56.8072 109.025 56.8072 107.717Z" fill="#141414"/>
<path d="M40.2386 101.799C40.2386 100.491 39.1788 99.4313 37.8716 99.4313C36.5644 99.4313 35.5046 100.491 35.5046 101.799C35.5046 103.107 36.5644 104.167 37.8716 104.167C39.1788 104.167 40.2386 103.107 40.2386 101.799Z" fill="#141414"/>
<path d="M27.2202 88.778C27.2202 87.4707 26.1605 86.4106 24.8533 86.4106C23.5461 86.4106 22.4863 87.4707 22.4863 88.778C22.4863 90.0858 23.5461 91.1459 24.8533 91.1459C26.1605 91.1459 27.2202 90.0858 27.2202 88.778Z" fill="#141414"/>
<path d="M20.1193 72.2059C20.1193 70.8987 19.0595 69.8386 17.7523 69.8386C16.445 69.8386 15.3852 70.8987 15.3852 72.2059C15.3852 73.5138 16.445 74.5738 17.7523 74.5738C19.0595 74.5738 20.1193 73.5138 20.1193 72.2059Z" fill="#141414"/>
<path d="M20.1193 54.4506C20.1193 53.1431 19.0595 52.0832 17.7523 52.0832C16.445 52.0832 15.3852 53.1431 15.3852 54.4506C15.3852 55.7584 16.445 56.8185 17.7523 56.8185C19.0595 56.8185 20.1193 55.7584 20.1193 54.4506Z" fill="#141414"/>
<path d="M27.2202 37.8786C27.2202 36.5711 26.1605 35.5112 24.8533 35.5112C23.5461 35.5112 22.4863 36.5711 22.4863 37.8786C22.4863 39.1861 23.5461 40.2461 24.8533 40.2461C26.1605 40.2461 27.2202 39.1861 27.2202 37.8786Z" fill="#141414"/>
<path d="M39.055 24.8579C39.055 23.5504 37.9953 22.4905 36.6881 22.4905C35.3808 22.4905 34.3211 23.5504 34.3211 24.8579C34.3211 26.1654 35.3808 27.2253 36.6881 27.2253C37.9953 27.2253 39.055 26.1654 39.055 24.8579Z" fill="#141414"/>
<path d="M55.6239 17.7556C55.6239 16.4481 54.5643 15.3882 53.257 15.3882C51.9498 15.3882 50.89 16.4481 50.89 17.7556C50.89 19.0631 51.9498 20.123 53.257 20.123C54.5643 20.123 55.6239 19.0631 55.6239 17.7556Z" fill="#141414"/>
<path d="M85.211 13.0208C85.211 11.7133 84.1515 10.6534 82.8442 10.6534C81.5369 10.6534 80.4774 11.7133 80.4774 13.0208C80.4774 14.3283 81.5369 15.3882 82.8442 15.3882C84.1515 15.3882 85.211 14.3283 85.211 13.0208Z" fill="#141414"/>
<path d="M102.964 24.8579C102.964 23.5504 101.904 22.4905 100.596 22.4905C99.2896 22.4905 98.2295 23.5504 98.2295 24.8579C98.2295 26.1654 99.2896 27.2253 100.596 27.2253C101.904 27.2253 102.964 26.1654 102.964 24.8579Z" fill="#141414"/>
<path d="M63.908 8.28598C63.908 6.97844 62.8485 5.91852 61.5412 5.91852C60.2334 5.91852 59.1744 6.97844 59.1744 8.28598C59.1744 9.59342 60.2334 10.6533 61.5412 10.6533C62.8485 10.6533 63.908 9.59342 63.908 8.28598Z" fill="#141414"/>
<path d="M42.6055 13.0208C42.6055 11.7133 41.5458 10.6534 40.2385 10.6534C38.9313 10.6534 37.8715 11.7133 37.8715 13.0208C37.8715 14.3283 38.9313 15.3882 40.2385 15.3882C41.5458 15.3882 42.6055 14.3283 42.6055 13.0208Z" fill="#141414"/>
<path d="M24.8532 27.2253C24.8532 25.9178 23.7934 24.8579 22.4862 24.8579C21.179 24.8579 20.1192 25.9178 20.1192 27.2253C20.1192 28.5328 21.179 29.5928 22.4862 29.5928C23.7934 29.5928 24.8532 28.5328 24.8532 27.2253Z" fill="#141414"/>
<path d="M13.0183 44.9809C13.0183 43.6734 11.9586 42.6135 10.6513 42.6135C9.34409 42.6135 8.28439 43.6734 8.28439 44.9809C8.28439 46.2884 9.34409 47.3484 10.6513 47.3484C11.9586 47.3484 13.0183 46.2884 13.0183 44.9809Z" fill="#141414"/>
<path d="M9.46786 66.2878C9.46786 64.98 8.40811 63.9205 7.10085 63.9205C5.79363 63.9205 4.7339 64.98 4.7339 66.2878C4.7339 67.5951 5.79363 68.6552 7.10085 68.6552C8.40811 68.6552 9.46786 67.5951 9.46786 66.2878Z" fill="#141414"/>
<path d="M15.3853 87.5946C15.3853 86.2868 14.3256 85.2272 13.0184 85.2272C11.7111 85.2272 10.6513 86.2868 10.6513 87.5946C10.6513 88.9018 11.7111 89.9619 13.0184 89.9619C14.3256 89.9619 15.3853 88.9018 15.3853 87.5946Z" fill="#141414"/>
<path d="M27.2202 104.167C27.2202 102.859 26.1605 101.799 24.8533 101.799C23.5461 101.799 22.4863 102.859 22.4863 104.167C22.4863 105.474 23.5461 106.534 24.8533 106.534C26.1605 106.534 27.2202 105.474 27.2202 104.167Z" fill="#141414"/>
<path d="M44.9724 116.003C44.9724 114.696 43.9127 113.636 42.6055 113.636C41.2982 113.636 40.2385 114.696 40.2385 116.003C40.2385 117.311 41.2982 118.371 42.6055 118.371C43.9127 118.371 44.9724 117.311 44.9724 116.003Z" fill="#141414"/>
<path d="M68.6423 119.555C68.6423 118.247 67.5822 117.187 66.2755 117.187C64.9677 117.187 63.9081 118.247 63.9081 119.555C63.9081 120.862 64.9677 121.922 66.2755 121.922C67.5822 121.922 68.6423 120.862 68.6423 119.555Z" fill="#141414"/>
<path d="M88.7617 113.636C88.7617 112.329 87.7016 111.269 86.3944 111.269C85.0871 111.269 84.0276 112.329 84.0276 113.636C84.0276 114.944 85.0871 116.003 86.3944 116.003C87.7016 116.003 88.7617 114.944 88.7617 113.636Z" fill="#141414"/>
<path d="M106.514 101.799C106.514 100.491 105.454 99.4313 104.146 99.4313C102.84 99.4313 101.78 100.491 101.78 101.799C101.78 103.107 102.84 104.167 104.146 104.167C105.454 104.167 106.514 103.107 106.514 101.799Z" fill="#141414"/>
<path d="M118.348 84.0432C118.348 82.736 117.289 81.6764 115.982 81.6764C114.674 81.6764 113.615 82.736 113.615 84.0432C113.615 85.3511 114.674 86.4106 115.982 86.4106C117.289 86.4106 118.348 85.3511 118.348 84.0432Z" fill="#141414"/>
<path d="M129 74.5738C129 73.9196 128.47 73.3904 127.817 73.3904C127.163 73.3904 126.633 73.9196 126.633 74.5738C126.633 75.2274 127.163 75.7572 127.817 75.7572C128.47 75.7572 129 75.2274 129 74.5738Z" fill="#141414"/>
<path d="M118.348 98.2479C118.348 97.5943 117.819 97.0639 117.165 97.0639C116.511 97.0639 115.982 97.5943 115.982 98.2479C115.982 98.9015 116.511 99.4313 117.165 99.4313C117.819 99.4313 118.348 98.9015 118.348 98.2479Z" fill="#141414"/>
<path d="M100.596 114.819C100.596 114.166 100.067 113.636 99.4129 113.636C98.7593 113.636 98.2295 114.166 98.2295 114.819C98.2295 115.474 98.7593 116.003 99.4129 116.003C100.067 116.003 100.596 115.474 100.596 114.819Z" fill="#141414"/>
<path d="M79.2934 125.473C79.2934 124.82 78.7636 124.289 78.1099 124.289C77.4563 124.289 76.9271 124.82 76.9271 125.473C76.9271 126.127 77.4563 126.657 78.1099 126.657C78.7636 126.657 79.2934 126.127 79.2934 125.473Z" fill="#141414"/>
<path d="M53.257 126.657C53.257 126.003 52.7271 125.473 52.0736 125.473C51.4199 125.473 50.89 126.003 50.89 126.657C50.89 127.311 51.4199 127.841 52.0736 127.841C52.7271 127.841 53.257 127.311 53.257 126.657Z" fill="#141414"/>
<path d="M29.5871 118.371C29.5871 117.717 29.0573 117.187 28.4037 117.187C27.75 117.187 27.2201 117.717 27.2201 118.371C27.2201 119.025 27.75 119.555 28.4037 119.555C29.0573 119.555 29.5871 119.025 29.5871 118.371Z" fill="#141414"/>
<path d="M11.8348 99.4313C11.8348 98.7777 11.3049 98.2479 10.6513 98.2479C9.99768 98.2479 9.46781 98.7777 9.46781 99.4313C9.46781 100.086 9.99768 100.615 10.6513 100.615C11.3049 100.615 11.8348 100.086 11.8348 99.4313Z" fill="#141414"/>
<path d="M2.36697 76.9412C2.36697 76.2875 1.83711 75.7572 1.18348 75.7572C0.529866 75.7572 0 76.2875 0 76.9412C0 77.5948 0.529866 78.1246 1.18348 78.1246C1.83711 78.1246 2.36697 77.5948 2.36697 76.9412Z" fill="#141414"/>
<path d="M2.36697 52.0832C2.36697 51.4295 1.83711 50.8995 1.18348 50.8995C0.529866 50.8995 0 51.4295 0 52.0832C0 52.7369 0.529866 53.2669 1.18348 53.2669C1.83711 53.2669 2.36697 52.7369 2.36697 52.0832Z" fill="#141414"/>
<path d="M10.6513 28.409C10.6513 27.7553 10.1215 27.2253 9.46784 27.2253C8.81427 27.2253 8.28439 27.7553 8.28439 28.409C8.28439 29.0628 8.81427 29.5928 9.46784 29.5928C10.1215 29.5928 10.6513 29.0628 10.6513 28.409Z" fill="#141414"/>
<path d="M27.2202 10.6533C27.2202 9.99964 26.6904 9.46966 26.0367 9.46966C25.3831 9.46966 24.8533 9.99964 24.8533 10.6533C24.8533 11.3071 25.3831 11.8371 26.0367 11.8371C26.6904 11.8371 27.2202 11.3071 27.2202 10.6533Z" fill="#141414"/>
<path d="M50.8899 1.1837C50.8899 0.529957 50.3601 0 49.7065 0C49.0529 0 48.523 0.529957 48.523 1.1837C48.523 1.83745 49.0529 2.36742 49.7065 2.36742C50.3601 2.36742 50.8899 1.83745 50.8899 1.1837Z" fill="#141414"/>
<path d="M75.7432 1.1837C75.7432 0.529957 75.2129 0 74.5598 0C73.9062 0 73.3758 0.529957 73.3758 1.1837C73.3758 1.83745 73.9062 2.36742 74.5598 2.36742C75.2129 2.36742 75.7432 1.83745 75.7432 1.1837Z" fill="#141414"/>
<path d="M99.4129 9.46969C99.4129 8.81595 98.8831 8.28602 98.2295 8.28602C97.5758 8.28602 97.0461 8.81595 97.0461 9.46969C97.0461 10.1234 97.5758 10.6534 98.2295 10.6534C98.8831 10.6534 99.4129 10.1234 99.4129 9.46969Z" fill="#141414"/>
<path d="M117.165 27.2253C117.165 26.5715 116.635 26.0416 115.982 26.0416C115.328 26.0416 114.798 26.5715 114.798 27.2253C114.798 27.879 115.328 28.4089 115.982 28.4089C116.635 28.4089 117.165 27.879 117.165 27.2253Z" fill="#141414"/>
<path d="M126.633 50.8995C126.633 50.2458 126.104 49.7157 125.449 49.7157C124.796 49.7157 124.266 50.2458 124.266 50.8995C124.266 51.5532 124.796 52.0832 125.449 52.0832C126.104 52.0832 126.633 51.5532 126.633 50.8995Z" fill="#141414"/>
<path d="M115.982 40.2461C115.982 38.9387 114.922 37.8787 113.615 37.8787C112.307 37.8787 111.248 38.9387 111.248 40.2461C111.248 41.5536 112.307 42.6135 113.615 42.6135C114.922 42.6135 115.982 41.5536 115.982 40.2461Z" fill="#141414"/>
<path d="M120.715 61.5526C120.715 60.2453 119.656 59.1852 118.348 59.1852C117.042 59.1852 115.982 60.2453 115.982 61.5526C115.982 62.8604 117.042 63.9205 118.348 63.9205C119.656 63.9205 120.715 62.8604 120.715 61.5526Z" fill="#141414"/>
<path d="M65.0915 98.2479C65.0915 96.2865 63.5022 94.6966 61.5413 94.6966C59.5804 94.6966 57.9911 96.2865 57.9911 98.2479C57.9911 100.209 59.5804 101.799 61.5413 101.799C63.5022 101.799 65.0915 100.209 65.0915 98.2479Z" fill="#141414"/>
<path d="M52.0735 95.8806C52.0735 93.9191 50.4839 92.3293 48.523 92.3293C46.5622 92.3293 44.9726 93.9191 44.9726 95.8806C44.9726 97.842 46.5622 99.4313 48.523 99.4313C50.4839 99.4313 52.0735 97.842 52.0735 95.8806Z" fill="#141414"/>
<path d="M40.2385 87.5946C40.2385 85.6331 38.6489 84.0433 36.6881 84.0433C34.7272 84.0433 33.1376 85.6331 33.1376 87.5946C33.1376 89.556 34.7272 91.1459 36.6881 91.1459C38.6489 91.1459 40.2385 89.556 40.2385 87.5946Z" fill="#141414"/>
<path d="M31.9542 75.7573C31.9542 73.7958 30.3645 72.206 28.4037 72.206C26.4428 72.206 24.8533 73.7958 24.8533 75.7573C24.8533 77.7187 26.4428 79.3086 28.4037 79.3086C30.3645 79.3086 31.9542 77.7187 31.9542 75.7573Z" fill="#141414"/>
<path d="M29.5873 61.5526C29.5873 59.5917 27.9977 58.0018 26.0368 58.0018C24.0759 58.0018 22.4863 59.5917 22.4863 61.5526C22.4863 63.514 24.0759 65.1044 26.0368 65.1044C27.9977 65.1044 29.5873 63.514 29.5873 61.5526Z" fill="#141414"/>
<path d="M31.9542 48.5321C31.9542 46.5709 30.3645 44.9809 28.4037 44.9809C26.4428 44.9809 24.8533 46.5709 24.8533 48.5321C24.8533 50.4933 26.4428 52.0832 28.4037 52.0832C30.3645 52.0832 31.9542 50.4933 31.9542 48.5321Z" fill="#141414"/>
<path d="M40.2385 36.695C40.2385 34.7337 38.6489 33.1439 36.6881 33.1439C34.7272 33.1439 33.1376 34.7337 33.1376 36.695C33.1376 38.6562 34.7272 40.2461 36.6881 40.2461C38.6489 40.2461 40.2385 38.6562 40.2385 36.695Z" fill="#141414"/>
<path d="M52.0735 29.5927C52.0735 27.6314 50.4839 26.0416 48.523 26.0416C46.5622 26.0416 44.9726 27.6314 44.9726 29.5927C44.9726 31.5539 46.5622 33.1439 48.523 33.1439C50.4839 33.1439 52.0735 31.5539 52.0735 29.5927Z" fill="#141414"/>
<path d="M65.0915 26.0416C65.0915 24.0803 63.5022 22.4905 61.5413 22.4905C59.5804 22.4905 57.9911 24.0803 57.9911 26.0416C57.9911 28.0028 59.5804 29.5928 61.5413 29.5928C63.5022 29.5928 65.0915 28.0028 65.0915 26.0416Z" fill="#141414"/>
<path d="M79.2935 29.5927C79.2935 27.6314 77.7042 26.0416 75.7433 26.0416C73.7824 26.0416 72.1931 27.6314 72.1931 29.5927C72.1931 31.5539 73.7824 33.1439 75.7433 33.1439C77.7042 33.1439 79.2935 31.5539 79.2935 29.5927Z" fill="#141414"/>
<path d="M91.1285 36.695C91.1285 34.7337 89.5392 33.1439 87.5778 33.1439C85.6169 33.1439 84.0276 34.7337 84.0276 36.695C84.0276 38.6562 85.6169 40.2461 87.5778 40.2461C89.5392 40.2461 91.1285 38.6562 91.1285 36.695Z" fill="#141414"/>
<path d="M98.2294 48.5321C98.2294 46.5709 96.6395 44.9809 94.6786 44.9809C92.7183 44.9809 91.1284 46.5709 91.1284 48.5321C91.1284 50.4933 92.7183 52.0832 94.6786 52.0832C96.6395 52.0832 98.2294 50.4933 98.2294 48.5321Z" fill="#141414"/>
<path d="M101.78 62.7365C101.78 60.7756 100.19 59.1852 98.2296 59.1852C96.2687 59.1852 94.6788 60.7756 94.6788 62.7365C94.6788 64.698 96.2687 66.2878 98.2296 66.2878C100.19 66.2878 101.78 64.698 101.78 62.7365Z" fill="#141414"/>
<path d="M98.2294 75.7573C98.2294 73.7958 96.6395 72.206 94.6786 72.206C92.7183 72.206 91.1284 73.7958 91.1284 75.7573C91.1284 77.7187 92.7183 79.3086 94.6786 79.3086C96.6395 79.3086 98.2294 77.7187 98.2294 75.7573Z" fill="#141414"/>
<path d="M91.1285 87.5946C91.1285 85.6331 89.5392 84.0433 87.5778 84.0433C85.6169 84.0433 84.0276 85.6331 84.0276 87.5946C84.0276 89.556 85.6169 91.1459 87.5778 91.1459C89.5392 91.1459 91.1285 89.556 91.1285 87.5946Z" fill="#141414"/>
<path d="M79.2935 94.6966C79.2935 92.7357 77.7042 91.1458 75.7433 91.1458C73.7824 91.1458 72.1931 92.7357 72.1931 94.6966C72.1931 96.6575 73.7824 98.2479 75.7433 98.2479C77.7042 98.2479 79.2935 96.6575 79.2935 94.6966Z" fill="#141414"/>
</svg>
